<svg width="335" height="255" viewBox="0 0 335 255" fill="none" xmlns="http://www.w3.org/2000/svg">
<path d="M109.58 28.9531C64.5727 18.5386 40.9291 42.6205 45.013 81.4501C17.021 100.379 19.8208 132.843 49.6857 153.385C59.4404 180.417 71.4966 185 97.8471 185.346C111.332 207.388 123.637 212.264 154.327 205.049C183.959 219.845 197.121 216.18 217.375 198.481C243.444 225.167 300.217 207.271 297.936 166.958C346 139.65 342.594 89.4616 308.443 67.1323C298.811 -1.60714 242.331 -8.1746 202.488 19.8533C163.522 -16.0592 123.241 2.77122 109.58 28.9531Z" fill="#E8F2F9"/>
<path d="M143.406 111.125V99.925H145.998V109.013H151.614V111.125H143.406ZM156.936 111.253C156.018 111.253 155.202 111.061 154.488 110.677C153.784 110.293 153.224 109.77 152.808 109.109C152.402 108.437 152.2 107.674 152.2 106.821C152.2 105.957 152.402 105.194 152.808 104.533C153.224 103.861 153.784 103.338 154.488 102.965C155.202 102.581 156.018 102.389 156.936 102.389C157.842 102.389 158.653 102.581 159.368 102.965C160.082 103.338 160.642 103.856 161.048 104.517C161.453 105.178 161.656 105.946 161.656 106.821C161.656 107.674 161.453 108.437 161.048 109.109C160.642 109.77 160.082 110.293 159.368 110.677C158.653 111.061 157.842 111.253 156.936 111.253ZM156.936 109.205C157.352 109.205 157.725 109.109 158.056 108.917C158.386 108.725 158.648 108.453 158.84 108.101C159.032 107.738 159.128 107.312 159.128 106.821C159.128 106.32 159.032 105.893 158.84 105.541C158.648 105.189 158.386 104.917 158.056 104.725C157.725 104.533 157.352 104.437 156.936 104.437C156.52 104.437 156.146 104.533 155.816 104.725C155.485 104.917 155.218 105.189 155.016 105.541C154.824 105.893 154.728 106.32 154.728 106.821C154.728 107.312 154.824 107.738 155.016 108.101C155.218 108.453 155.485 108.725 155.816 108.917C156.146 109.109 156.52 109.205 156.936 109.205ZM168.463 111.125V109.445L168.303 109.077V106.069C168.303 105.536 168.138 105.12 167.807 104.821C167.487 104.522 166.991 104.373 166.319 104.373C165.861 104.373 165.407 104.448 164.959 104.597C164.522 104.736 164.149 104.928 163.839 105.173L162.943 103.429C163.413 103.098 163.978 102.842 164.639 102.661C165.301 102.48 165.973 102.389 166.655 102.389C167.967 102.389 168.986 102.698 169.711 103.317C170.437 103.936 170.799 104.901 170.799 106.213V111.125H168.463ZM165.839 111.253C165.167 111.253 164.591 111.141 164.111 110.917C163.631 110.682 163.263 110.368 163.007 109.973C162.751 109.578 162.623 109.136 162.623 108.645C162.623 108.133 162.746 107.685 162.991 107.301C163.247 106.917 163.647 106.618 164.191 106.405C164.735 106.181 165.445 106.069 166.319 106.069H168.607V107.525H166.591C166.005 107.525 165.599 107.621 165.375 107.813C165.162 108.005 165.055 108.245 165.055 108.533C165.055 108.853 165.178 109.109 165.423 109.301C165.679 109.482 166.026 109.573 166.463 109.573C166.879 109.573 167.253 109.477 167.583 109.285C167.914 109.082 168.154 108.789 168.303 108.405L168.687 109.557C168.506 110.112 168.175 110.533 167.695 110.821C167.215 111.109 166.597 111.253 165.839 111.253ZM176.817 111.253C176.006 111.253 175.275 111.072 174.625 110.709C173.974 110.336 173.457 109.818 173.073 109.157C172.699 108.496 172.513 107.717 172.513 106.821C172.513 105.914 172.699 105.13 173.073 104.469C173.457 103.808 173.974 103.296 174.625 102.933C175.275 102.57 176.006 102.389 176.817 102.389C177.542 102.389 178.177 102.549 178.721 102.869C179.265 103.189 179.686 103.674 179.985 104.325C180.283 104.976 180.433 105.808 180.433 106.821C180.433 107.824 180.289 108.656 180.001 109.317C179.713 109.968 179.297 110.453 178.753 110.773C178.219 111.093 177.574 111.253 176.817 111.253ZM177.249 109.205C177.654 109.205 178.022 109.109 178.353 108.917C178.683 108.725 178.945 108.453 179.137 108.101C179.339 107.738 179.441 107.312 179.441 106.821C179.441 106.32 179.339 105.893 179.137 105.541C178.945 105.189 178.683 104.917 178.353 104.725C178.022 104.533 177.654 104.437 177.249 104.437C176.833 104.437 176.459 104.533 176.129 104.725C175.798 104.917 175.531 105.189 175.329 105.541C175.137 105.893 175.041 106.32 175.041 106.821C175.041 107.312 175.137 107.738 175.329 108.101C175.531 108.453 175.798 108.725 176.129 108.917C176.459 109.109 176.833 109.205 177.249 109.205ZM179.505 111.125V109.365L179.553 106.805L179.393 104.261V99.253H181.889V111.125H179.505ZM184.199 111.125V102.517H186.695V111.125H184.199ZM185.447 101.317C184.988 101.317 184.615 101.184 184.327 100.917C184.039 100.65 183.895 100.32 183.895 99.925C183.895 99.5303 184.039 99.1997 184.327 98.933C184.615 98.6663 184.988 98.533 185.447 98.533C185.906 98.533 186.279 98.661 186.567 98.917C186.855 99.1623 186.999 99.4823 186.999 99.877C186.999 100.293 186.855 100.64 186.567 100.917C186.29 101.184 185.916 101.317 185.447 101.317ZM194.243 102.389C194.926 102.389 195.534 102.528 196.067 102.805C196.611 103.072 197.038 103.488 197.347 104.053C197.657 104.608 197.811 105.322 197.811 106.197V111.125H195.315V106.581C195.315 105.888 195.161 105.376 194.851 105.045C194.553 104.714 194.126 104.549 193.571 104.549C193.177 104.549 192.819 104.634 192.499 104.805C192.19 104.965 191.945 105.216 191.763 105.557C191.593 105.898 191.507 106.336 191.507 106.869V111.125H189.011V102.517H191.395V104.901L190.947 104.181C191.257 103.605 191.699 103.162 192.275 102.853C192.851 102.544 193.507 102.389 194.243 102.389ZM204.184 114.357C203.374 114.357 202.59 114.256 201.832 114.053C201.086 113.861 200.462 113.568 199.96 113.173L200.952 111.381C201.315 111.68 201.774 111.914 202.328 112.085C202.894 112.266 203.448 112.357 203.992 112.357C204.878 112.357 205.518 112.16 205.912 111.765C206.318 111.37 206.52 110.784 206.52 110.005V108.709L206.68 106.549L206.648 104.373V102.517H209.016V109.685C209.016 111.285 208.6 112.464 207.768 113.221C206.936 113.978 205.742 114.357 204.184 114.357ZM203.8 110.709C203 110.709 202.275 110.538 201.624 110.197C200.984 109.845 200.467 109.36 200.072 108.741C199.688 108.112 199.496 107.381 199.496 106.549C199.496 105.706 199.688 104.976 200.072 104.357C200.467 103.728 200.984 103.242 201.624 102.901C202.275 102.56 203 102.389 203.8 102.389C204.526 102.389 205.166 102.538 205.72 102.837C206.275 103.125 206.707 103.578 207.016 104.197C207.326 104.805 207.48 105.589 207.48 106.549C207.48 107.498 207.326 108.282 207.016 108.901C206.707 109.509 206.275 109.962 205.72 110.261C205.166 110.56 204.526 110.709 203.8 110.709ZM204.296 108.661C204.734 108.661 205.123 108.576 205.464 108.405C205.806 108.224 206.072 107.973 206.264 107.653C206.456 107.333 206.552 106.965 206.552 106.549C206.552 106.122 206.456 105.754 206.264 105.445C206.072 105.125 205.806 104.88 205.464 104.709C205.123 104.528 204.734 104.437 204.296 104.437C203.859 104.437 203.47 104.528 203.128 104.709C202.787 104.88 202.515 105.125 202.312 105.445C202.12 105.754 202.024 106.122 202.024 106.549C202.024 106.965 202.12 107.333 202.312 107.653C202.515 107.973 202.787 108.224 203.128 108.405C203.47 108.576 203.859 108.661 204.296 108.661ZM212.284 111.253C211.857 111.253 211.489 111.109 211.18 110.821C210.881 110.522 210.732 110.144 210.732 109.685C210.732 109.226 210.881 108.858 211.18 108.581C211.489 108.293 211.857 108.149 212.284 108.149C212.721 108.149 213.089 108.293 213.388 108.581C213.686 108.858 213.836 109.226 213.836 109.685C213.836 110.144 213.686 110.522 213.388 110.821C213.089 111.109 212.721 111.253 212.284 111.253ZM216.471 111.253C216.044 111.253 215.676 111.109 215.367 110.821C215.068 110.522 214.919 110.144 214.919 109.685C214.919 109.226 215.068 108.858 215.367 108.581C215.676 108.293 216.044 108.149 216.471 108.149C216.908 108.149 217.276 108.293 217.575 108.581C217.874 108.858 218.023 109.226 218.023 109.685C218.023 110.144 217.874 110.522 217.575 110.821C217.276 111.109 216.908 111.253 216.471 111.253Z" fill="#324D72"/>
<ellipse cx="49.519" cy="204.888" rx="18.3013" ry="17.1125" fill="#E8F2F9"/>
<ellipse cx="7.73626" cy="246.835" rx="7.73626" ry="7.23377" fill="#E8F2F9"/>
</svg>
